<mxfile host="app.diagrams.net" modified="2023-08-27T04:22:12.455Z" agent="Mozilla/5.0 (Windows NT 10.0; Win64; x64) AppleWebKit/537.36 (KHTML, like Gecko) Chrome/116.0.0.0 Safari/537.36" etag="fA9JE3sO2bSTH3BjQtyK" version="21.6.9" type="github">
  <diagram name="Page-1" id="MfiEqYsyeYtZddtAIq0g">
    <mxGraphModel dx="1257" dy="691" grid="0" gridSize="10" guides="1" tooltips="1" connect="1" arrows="1" fold="1" page="0" pageScale="1" pageWidth="850" pageHeight="1100" math="0" shadow="1">
      <root>
        <mxCell id="0" />
        <mxCell id="1" parent="0" />
        <mxCell id="a5eXOYQ6A8ZNcuYOm1AZ-1" style="edgeStyle=orthogonalEdgeStyle;rounded=0;orthogonalLoop=1;jettySize=auto;html=1;entryX=0.5;entryY=0;entryDx=0;entryDy=0;" edge="1" parent="1" source="a5eXOYQ6A8ZNcuYOm1AZ-3">
          <mxGeometry relative="1" as="geometry">
            <mxPoint x="143" y="200" as="targetPoint" />
          </mxGeometry>
        </mxCell>
        <mxCell id="a5eXOYQ6A8ZNcuYOm1AZ-2" style="edgeStyle=orthogonalEdgeStyle;rounded=0;orthogonalLoop=1;jettySize=auto;html=1;" edge="1" parent="1" source="a5eXOYQ6A8ZNcuYOm1AZ-3">
          <mxGeometry relative="1" as="geometry">
            <mxPoint x="388" y="80" as="targetPoint" />
          </mxGeometry>
        </mxCell>
        <mxCell id="a5eXOYQ6A8ZNcuYOm1AZ-3" value="&lt;font style=&quot;font-size: 24px;&quot;&gt;&lt;b&gt;Company&lt;/b&gt;&lt;/font&gt;" style="whiteSpace=wrap;html=1;" vertex="1" parent="1">
          <mxGeometry x="83" y="50" width="120" height="60" as="geometry" />
        </mxCell>
        <mxCell id="a5eXOYQ6A8ZNcuYOm1AZ-4" style="edgeStyle=orthogonalEdgeStyle;rounded=0;orthogonalLoop=1;jettySize=auto;html=1;entryX=0.606;entryY=0.976;entryDx=0;entryDy=0;entryPerimeter=0;" edge="1" parent="1" source="a5eXOYQ6A8ZNcuYOm1AZ-6" target="a5eXOYQ6A8ZNcuYOm1AZ-10">
          <mxGeometry relative="1" as="geometry" />
        </mxCell>
        <mxCell id="a5eXOYQ6A8ZNcuYOm1AZ-5" value="&lt;font style=&quot;font-size: 14px;&quot;&gt;validtion&lt;/font&gt;" style="edgeLabel;html=1;align=center;verticalAlign=middle;resizable=0;points=[];" vertex="1" connectable="0" parent="a5eXOYQ6A8ZNcuYOm1AZ-4">
          <mxGeometry x="-0.4023" y="2" relative="1" as="geometry">
            <mxPoint as="offset" />
          </mxGeometry>
        </mxCell>
        <mxCell id="a5eXOYQ6A8ZNcuYOm1AZ-6" value="&lt;font style=&quot;font-size: 24px;&quot;&gt;&lt;b&gt;Database&lt;/b&gt;&lt;/font&gt;" style="shape=cylinder3;whiteSpace=wrap;html=1;boundedLbl=1;backgroundOutline=1;size=15;" vertex="1" parent="1">
          <mxGeometry x="350.93" y="420" width="195.63" height="190" as="geometry" />
        </mxCell>
        <mxCell id="a5eXOYQ6A8ZNcuYOm1AZ-7" style="edgeStyle=orthogonalEdgeStyle;rounded=0;orthogonalLoop=1;jettySize=auto;html=1;entryX=-0.003;entryY=0.735;entryDx=0;entryDy=0;entryPerimeter=0;" edge="1" parent="1" source="a5eXOYQ6A8ZNcuYOm1AZ-10" target="a5eXOYQ6A8ZNcuYOm1AZ-12">
          <mxGeometry relative="1" as="geometry" />
        </mxCell>
        <mxCell id="a5eXOYQ6A8ZNcuYOm1AZ-8" style="edgeStyle=orthogonalEdgeStyle;rounded=0;orthogonalLoop=1;jettySize=auto;html=1;entryX=0;entryY=0;entryDx=0;entryDy=135;entryPerimeter=0;" edge="1" parent="1" source="a5eXOYQ6A8ZNcuYOm1AZ-10" target="a5eXOYQ6A8ZNcuYOm1AZ-6">
          <mxGeometry relative="1" as="geometry">
            <Array as="points">
              <mxPoint x="120" y="555" />
            </Array>
          </mxGeometry>
        </mxCell>
        <mxCell id="a5eXOYQ6A8ZNcuYOm1AZ-9" value="&lt;font style=&quot;font-size: 14px;&quot;&gt;store user details in data base&lt;/font&gt;" style="edgeLabel;html=1;align=center;verticalAlign=middle;resizable=0;points=[];" vertex="1" connectable="0" parent="a5eXOYQ6A8ZNcuYOm1AZ-8">
          <mxGeometry x="0.4694" relative="1" as="geometry">
            <mxPoint as="offset" />
          </mxGeometry>
        </mxCell>
        <mxCell id="a5eXOYQ6A8ZNcuYOm1AZ-10" value="&lt;span style=&quot;border-color: var(--border-color);&quot;&gt;&lt;font style=&quot;font-size: 18px;&quot;&gt;&lt;b&gt;Registeration&lt;/b&gt;&lt;/font&gt;&lt;/span&gt;" style="ellipse;whiteSpace=wrap;html=1;aspect=fixed;" vertex="1" parent="1">
          <mxGeometry x="84" y="199" width="122" height="122" as="geometry" />
        </mxCell>
        <mxCell id="a5eXOYQ6A8ZNcuYOm1AZ-11" value="" style="edgeStyle=orthogonalEdgeStyle;rounded=0;orthogonalLoop=1;jettySize=auto;html=1;" edge="1" parent="1" source="a5eXOYQ6A8ZNcuYOm1AZ-12" target="a5eXOYQ6A8ZNcuYOm1AZ-14">
          <mxGeometry relative="1" as="geometry" />
        </mxCell>
        <mxCell id="a5eXOYQ6A8ZNcuYOm1AZ-12" value="&lt;b style=&quot;border-color: var(--border-color);&quot;&gt;&lt;font style=&quot;font-size: 18px;&quot;&gt;Login&lt;/font&gt;&lt;/b&gt;" style="ellipse;whiteSpace=wrap;html=1;aspect=fixed;" vertex="1" parent="1">
          <mxGeometry x="393.06" y="30" width="122" height="122" as="geometry" />
        </mxCell>
        <mxCell id="a5eXOYQ6A8ZNcuYOm1AZ-13" style="edgeStyle=orthogonalEdgeStyle;rounded=0;orthogonalLoop=1;jettySize=auto;html=1;" edge="1" parent="1" source="a5eXOYQ6A8ZNcuYOm1AZ-14">
          <mxGeometry relative="1" as="geometry">
            <mxPoint x="700" y="262" as="targetPoint" />
          </mxGeometry>
        </mxCell>
        <mxCell id="a5eXOYQ6A8ZNcuYOm1AZ-14" value="&lt;b style=&quot;border-color: var(--border-color);&quot;&gt;&lt;font style=&quot;font-size: 18px;&quot;&gt;Authentication&lt;/font&gt;&lt;/b&gt;" style="ellipse;whiteSpace=wrap;html=1;aspect=fixed;" vertex="1" parent="1">
          <mxGeometry x="389.06" y="197" width="130" height="130" as="geometry" />
        </mxCell>
        <mxCell id="a5eXOYQ6A8ZNcuYOm1AZ-15" value="&lt;b style=&quot;border-color: var(--border-color);&quot;&gt;&lt;font style=&quot;font-size: 18px;&quot;&gt;Logout&lt;/font&gt;&lt;/b&gt;" style="ellipse;whiteSpace=wrap;html=1;aspect=fixed;" vertex="1" parent="1">
          <mxGeometry x="715" y="40" width="80" height="80" as="geometry" />
        </mxCell>
        <mxCell id="a5eXOYQ6A8ZNcuYOm1AZ-16" style="edgeStyle=orthogonalEdgeStyle;rounded=0;orthogonalLoop=1;jettySize=auto;html=1;" edge="1" parent="1" source="a5eXOYQ6A8ZNcuYOm1AZ-18" target="a5eXOYQ6A8ZNcuYOm1AZ-15">
          <mxGeometry relative="1" as="geometry" />
        </mxCell>
        <mxCell id="a5eXOYQ6A8ZNcuYOm1AZ-17" style="edgeStyle=orthogonalEdgeStyle;rounded=0;orthogonalLoop=1;jettySize=auto;html=1;entryX=0.463;entryY=-0.065;entryDx=0;entryDy=0;entryPerimeter=0;" edge="1" parent="1" source="a5eXOYQ6A8ZNcuYOm1AZ-18" target="a5eXOYQ6A8ZNcuYOm1AZ-19">
          <mxGeometry relative="1" as="geometry" />
        </mxCell>
        <mxCell id="a5eXOYQ6A8ZNcuYOm1AZ-18" value="&lt;b style=&quot;border-color: var(--border-color);&quot;&gt;&lt;font style=&quot;font-size: 18px;&quot;&gt;Dashboard&lt;/font&gt;&lt;/b&gt;" style="ellipse;whiteSpace=wrap;html=1;aspect=fixed;" vertex="1" parent="1">
          <mxGeometry x="700" y="210" width="110" height="110" as="geometry" />
        </mxCell>
        <mxCell id="a5eXOYQ6A8ZNcuYOm1AZ-24" value="" style="edgeStyle=orthogonalEdgeStyle;rounded=0;orthogonalLoop=1;jettySize=auto;html=1;" edge="1" parent="1" source="a5eXOYQ6A8ZNcuYOm1AZ-19" target="a5eXOYQ6A8ZNcuYOm1AZ-23">
          <mxGeometry relative="1" as="geometry" />
        </mxCell>
        <mxCell id="a5eXOYQ6A8ZNcuYOm1AZ-19" value="&lt;b style=&quot;border-color: var(--border-color);&quot;&gt;&lt;font style=&quot;font-size: 18px;&quot;&gt;Internal Campus system&lt;/font&gt;&lt;/b&gt;" style="ellipse;whiteSpace=wrap;html=1;aspect=fixed;" vertex="1" parent="1">
          <mxGeometry x="700" y="400" width="120" height="120" as="geometry" />
        </mxCell>
        <mxCell id="a5eXOYQ6A8ZNcuYOm1AZ-20" value="" style="endArrow=classic;startArrow=classic;html=1;rounded=0;" edge="1" parent="1" target="a5eXOYQ6A8ZNcuYOm1AZ-14">
          <mxGeometry width="50" height="50" relative="1" as="geometry">
            <mxPoint x="450" y="420" as="sourcePoint" />
            <mxPoint x="500" y="370" as="targetPoint" />
          </mxGeometry>
        </mxCell>
        <mxCell id="a5eXOYQ6A8ZNcuYOm1AZ-21" value="&lt;font style=&quot;font-size: 24px;&quot;&gt;&lt;b&gt;Level 1.1 DFD&lt;/b&gt;&lt;/font&gt;" style="text;html=1;align=center;verticalAlign=middle;resizable=0;points=[];autosize=1;strokeColor=none;fillColor=none;" vertex="1" parent="1">
          <mxGeometry x="343" y="643" width="175" height="41" as="geometry" />
        </mxCell>
        <mxCell id="a5eXOYQ6A8ZNcuYOm1AZ-22" value="&lt;font style=&quot;font-size: 18px;&quot;&gt;&lt;b&gt;FIGURE2.2&lt;/b&gt;&lt;/font&gt;" style="text;html=1;align=center;verticalAlign=middle;resizable=0;points=[];autosize=1;strokeColor=none;fillColor=none;" vertex="1" parent="1">
          <mxGeometry x="375" y="693" width="111" height="34" as="geometry" />
        </mxCell>
        <mxCell id="a5eXOYQ6A8ZNcuYOm1AZ-23" value="&lt;font style=&quot;font-size: 18px;&quot;&gt;&lt;b style=&quot;&quot;&gt;Send Mail&lt;/b&gt;&lt;/font&gt;" style="ellipse;whiteSpace=wrap;html=1;" vertex="1" parent="1">
          <mxGeometry x="720" y="621" width="80" height="80" as="geometry" />
        </mxCell>
      </root>
    </mxGraphModel>
  </diagram>
</mxfile>
